<svg xmlns="http://www.w3.org/2000/svg" xmlns:xlink="http://www.w3.org/1999/xlink" width="500" zoomAndPan="magnify" viewBox="0 0 375 374.999991" height="500" preserveAspectRatio="xMidYMid meet" version="1.0"><defs><g/><clipPath id="297e9109ba"><path d="M 187.5 0 C 83.945312 0 0 83.945312 0 187.5 C 0 291.054688 83.945312 375 187.5 375 C 291.054688 375 375 291.054688 375 187.5 C 375 83.945312 291.054688 0 187.5 0 Z M 187.5 0 " clip-rule="nonzero"/></clipPath></defs><rect x="-37.5" width="450" fill="#ffffff" y="-37.499999" height="449.999989" fill-opacity="1"/><rect x="-37.5" width="450" fill="#ffffff" y="-37.499999" height="449.999989" fill-opacity="1"/><g clip-path="url(#297e9109ba)"><rect x="-37.5" width="450" fill="#ffde59" y="-37.499999" height="449.999989" fill-opacity="1"/></g><g fill="#000000" fill-opacity="1"><g transform="translate(7.335942, 246.250486)"><g><path d="M 38.625 1.25 C 32.582031 1.25 27.207031 0.503906 22.5 -0.984375 C 17.789062 -2.472656 13.863281 -4.425781 10.71875 -6.84375 C 7.582031 -9.269531 5.179688 -11.9375 3.515625 -14.84375 L 13 -26.40625 L 14.484375 -26.40625 C 17.109375 -22.507812 20.4375 -19.410156 24.46875 -17.109375 C 28.5 -14.804688 33.21875 -13.65625 38.625 -13.65625 C 43.238281 -13.65625 46.71875 -14.625 49.0625 -16.5625 C 51.40625 -18.507812 52.578125 -21.195312 52.578125 -24.625 C 52.578125 -26.6875 52.195312 -28.410156 51.4375 -29.796875 C 50.6875 -31.191406 49.4375 -32.382812 47.6875 -33.375 C 45.9375 -34.375 43.570312 -35.226562 40.59375 -35.9375 L 29.390625 -38.5 C 21.554688 -40.289062 15.722656 -43.257812 11.890625 -47.40625 C 8.054688 -51.5625 6.140625 -56.960938 6.140625 -63.609375 C 6.140625 -68.535156 7.367188 -72.863281 9.828125 -76.59375 C 12.296875 -80.332031 15.882812 -83.234375 20.59375 -85.296875 C 25.300781 -87.367188 30.9375 -88.40625 37.5 -88.40625 C 44.207031 -88.40625 49.957031 -87.519531 54.75 -85.75 C 59.539062 -83.976562 63.582031 -81.265625 66.875 -77.609375 L 58.359375 -65.921875 L 56.859375 -65.921875 C 54.398438 -68.503906 51.582031 -70.441406 48.40625 -71.734375 C 45.226562 -73.023438 41.59375 -73.671875 37.5 -73.671875 C 32.769531 -73.671875 29.171875 -72.835938 26.703125 -71.171875 C 24.242188 -69.503906 23.015625 -67.203125 23.015625 -64.265625 C 23.015625 -61.515625 23.875 -59.320312 25.59375 -57.6875 C 27.320312 -56.0625 30.316406 -54.796875 34.578125 -53.890625 L 46.015625 -51.5 C 54.484375 -49.707031 60.625 -46.675781 64.4375 -42.40625 C 68.25 -38.132812 70.15625 -32.5625 70.15625 -25.6875 C 70.15625 -20.25 68.984375 -15.507812 66.640625 -11.46875 C 64.296875 -7.4375 60.757812 -4.304688 56.03125 -2.078125 C 51.300781 0.140625 45.5 1.25 38.625 1.25 Z M 38.625 1.25 "/></g></g></g><g fill="#000000" fill-opacity="1"><g transform="translate(82.201766, 246.250486)"><g><path d="M 47.515625 1.25 C 39.523438 1.25 32.476562 -0.378906 26.375 -3.640625 C 20.28125 -6.898438 15.503906 -11.875 12.046875 -18.5625 C 8.585938 -25.257812 6.859375 -33.597656 6.859375 -43.578125 C 6.859375 -53.546875 8.585938 -61.878906 12.046875 -68.578125 C 15.503906 -75.273438 20.28125 -80.253906 26.375 -83.515625 C 32.476562 -86.773438 39.523438 -88.40625 47.515625 -88.40625 C 55.492188 -88.40625 62.523438 -86.785156 68.609375 -83.546875 C 74.691406 -80.304688 79.453125 -75.328125 82.890625 -68.609375 C 86.328125 -61.890625 88.046875 -53.546875 88.046875 -43.578125 C 88.046875 -33.597656 86.328125 -25.25 82.890625 -18.53125 C 79.453125 -11.820312 74.691406 -6.847656 68.609375 -3.609375 C 62.523438 -0.367188 55.492188 1.25 47.515625 1.25 Z M 47.515625 -13.703125 C 54.898438 -13.703125 60.539062 -16.078125 64.4375 -20.828125 C 68.332031 -25.578125 70.28125 -33.160156 70.28125 -43.578125 C 70.28125 -53.984375 68.332031 -61.570312 64.4375 -66.34375 C 60.539062 -71.113281 54.898438 -73.5 47.515625 -73.5 C 40.078125 -73.5 34.398438 -71.113281 30.484375 -66.34375 C 26.578125 -61.570312 24.625 -53.984375 24.625 -43.578125 C 24.625 -33.160156 26.578125 -25.578125 30.484375 -20.828125 C 34.398438 -16.078125 40.078125 -13.703125 47.515625 -13.703125 Z M 47.515625 -13.703125 "/></g></g></g><g fill="#000000" fill-opacity="1"><g transform="translate(177.155003, 246.250486)"><g><path d="M 47.515625 1.25 C 39.523438 1.25 32.476562 -0.378906 26.375 -3.640625 C 20.28125 -6.898438 15.503906 -11.875 12.046875 -18.5625 C 8.585938 -25.257812 6.859375 -33.597656 6.859375 -43.578125 C 6.859375 -53.546875 8.585938 -61.878906 12.046875 -68.578125 C 15.503906 -75.273438 20.28125 -80.253906 26.375 -83.515625 C 32.476562 -86.773438 39.523438 -88.40625 47.515625 -88.40625 C 55.492188 -88.40625 62.523438 -86.785156 68.609375 -83.546875 C 74.691406 -80.304688 79.453125 -75.328125 82.890625 -68.609375 C 86.328125 -61.890625 88.046875 -53.546875 88.046875 -43.578125 C 88.046875 -33.597656 86.328125 -25.25 82.890625 -18.53125 C 79.453125 -11.820312 74.691406 -6.847656 68.609375 -3.609375 C 62.523438 -0.367188 55.492188 1.25 47.515625 1.25 Z M 47.515625 -13.703125 C 54.898438 -13.703125 60.539062 -16.078125 64.4375 -20.828125 C 68.332031 -25.578125 70.28125 -33.160156 70.28125 -43.578125 C 70.28125 -53.984375 68.332031 -61.570312 64.4375 -66.34375 C 60.539062 -71.113281 54.898438 -73.5 47.515625 -73.5 C 40.078125 -73.5 34.398438 -71.113281 30.484375 -66.34375 C 26.578125 -61.570312 24.625 -53.984375 24.625 -43.578125 C 24.625 -33.160156 26.578125 -25.578125 30.484375 -20.828125 C 34.398438 -16.078125 40.078125 -13.703125 47.515625 -13.703125 Z M 47.515625 -13.703125 "/></g></g></g><g fill="#000000" fill-opacity="1"><g transform="translate(272.10824, 246.250486)"><g><path d="M 28.015625 0 L 11.328125 0 L 11.328125 -87.140625 L 31.0625 -87.140625 L 66.046875 -31 L 67.59375 -31.234375 L 67.59375 -87.140625 L 84.171875 -87.140625 L 84.171875 0 L 66.515625 0 L 29.5 -59.96875 L 28.015625 -59.734375 Z M 28.015625 0 "/></g></g></g></svg>