<svg xmlns="http://www.w3.org/2000/svg" xmlns:xlink="http://www.w3.org/1999/xlink" width="500" zoomAndPan="magnify" viewBox="0 0 375 374.999991" height="500" preserveAspectRatio="xMidYMid meet" version="1.0"><defs><g/></defs><rect x="-37.5" width="450" fill="#ffffff" y="-37.499999" height="449.999989" fill-opacity="1"/><rect x="-37.5" width="450" fill="#ffffff" y="-37.499999" height="449.999989" fill-opacity="1"/><rect x="-37.5" width="450" fill="#ffde59" y="-37.499999" height="449.999989" fill-opacity="1"/><g fill="#000000" fill-opacity="1"><g transform="translate(12.302794, 233.121013)"><g><path d="M 38.609375 1.25 C 32.566406 1.25 27.191406 0.503906 22.484375 -0.984375 C 17.773438 -2.472656 13.851562 -4.425781 10.71875 -6.84375 C 7.582031 -9.269531 5.179688 -11.929688 3.515625 -14.828125 L 12.984375 -26.390625 L 14.46875 -26.390625 C 17.09375 -22.492188 20.421875 -19.394531 24.453125 -17.09375 C 28.484375 -14.789062 33.203125 -13.640625 38.609375 -13.640625 C 43.210938 -13.640625 46.6875 -14.613281 49.03125 -16.5625 C 51.375 -18.507812 52.546875 -21.191406 52.546875 -24.609375 C 52.546875 -26.671875 52.164062 -28.394531 51.40625 -29.78125 C 50.65625 -31.175781 49.40625 -32.367188 47.65625 -33.359375 C 45.90625 -34.347656 43.539062 -35.203125 40.5625 -35.921875 L 29.375 -38.484375 C 21.550781 -40.265625 15.722656 -43.226562 11.890625 -47.375 C 8.054688 -51.53125 6.140625 -56.925781 6.140625 -63.5625 C 6.140625 -68.488281 7.367188 -72.816406 9.828125 -76.546875 C 12.285156 -80.273438 15.867188 -83.171875 20.578125 -85.234375 C 25.285156 -87.304688 30.914062 -88.34375 37.46875 -88.34375 C 44.175781 -88.34375 49.921875 -87.457031 54.703125 -85.6875 C 59.492188 -83.925781 63.539062 -81.21875 66.84375 -77.5625 L 58.3125 -65.890625 L 56.828125 -65.890625 C 54.367188 -68.460938 51.550781 -70.394531 48.375 -71.6875 C 45.195312 -72.976562 41.5625 -73.625 37.46875 -73.625 C 32.738281 -73.625 29.144531 -72.789062 26.6875 -71.125 C 24.226562 -69.457031 23 -67.15625 23 -64.21875 C 23 -61.476562 23.859375 -59.289062 25.578125 -57.65625 C 27.304688 -56.03125 30.296875 -54.765625 34.546875 -53.859375 L 45.984375 -51.46875 C 54.441406 -49.675781 60.578125 -46.644531 64.390625 -42.375 C 68.203125 -38.113281 70.109375 -32.546875 70.109375 -25.671875 C 70.109375 -20.234375 68.9375 -15.5 66.59375 -11.46875 C 64.25 -7.4375 60.710938 -4.304688 55.984375 -2.078125 C 51.265625 0.140625 45.472656 1.25 38.609375 1.25 Z M 38.609375 1.25 "/></g></g></g><g fill="#000000" fill-opacity="1"><g transform="translate(87.11831, 233.121013)"><g><path d="M 47.484375 1.25 C 39.492188 1.25 32.453125 -0.375 26.359375 -3.625 C 20.265625 -6.882812 15.488281 -11.859375 12.03125 -18.546875 C 8.570312 -25.242188 6.84375 -33.578125 6.84375 -43.546875 C 6.84375 -53.515625 8.570312 -61.84375 12.03125 -68.53125 C 15.488281 -75.226562 20.265625 -80.203125 26.359375 -83.453125 C 32.453125 -86.710938 39.492188 -88.34375 47.484375 -88.34375 C 55.460938 -88.34375 62.488281 -86.722656 68.5625 -83.484375 C 74.644531 -80.253906 79.398438 -75.28125 82.828125 -68.5625 C 86.265625 -61.851562 87.984375 -53.515625 87.984375 -43.546875 C 87.984375 -33.578125 86.265625 -25.234375 82.828125 -18.515625 C 79.398438 -11.804688 74.644531 -6.832031 68.5625 -3.59375 C 62.488281 -0.363281 55.460938 1.25 47.484375 1.25 Z M 47.484375 -13.703125 C 54.867188 -13.703125 60.503906 -16.070312 64.390625 -20.8125 C 68.285156 -25.5625 70.234375 -33.140625 70.234375 -43.546875 C 70.234375 -53.953125 68.285156 -61.535156 64.390625 -66.296875 C 60.503906 -71.066406 54.867188 -73.453125 47.484375 -73.453125 C 40.054688 -73.453125 34.382812 -71.066406 30.46875 -66.296875 C 26.5625 -61.535156 24.609375 -53.953125 24.609375 -43.546875 C 24.609375 -33.140625 26.5625 -25.5625 30.46875 -20.8125 C 34.382812 -16.070312 40.054688 -13.703125 47.484375 -13.703125 Z M 47.484375 -13.703125 "/></g></g></g><g fill="#000000" fill-opacity="1"><g transform="translate(182.007734, 233.121013)"><g><path d="M 47.484375 1.25 C 39.492188 1.25 32.453125 -0.375 26.359375 -3.625 C 20.265625 -6.882812 15.488281 -11.859375 12.03125 -18.546875 C 8.570312 -25.242188 6.84375 -33.578125 6.84375 -43.546875 C 6.84375 -53.515625 8.570312 -61.84375 12.03125 -68.53125 C 15.488281 -75.226562 20.265625 -80.203125 26.359375 -83.453125 C 32.453125 -86.710938 39.492188 -88.34375 47.484375 -88.34375 C 55.460938 -88.34375 62.488281 -86.722656 68.5625 -83.484375 C 74.644531 -80.253906 79.398438 -75.28125 82.828125 -68.5625 C 86.265625 -61.851562 87.984375 -53.515625 87.984375 -43.546875 C 87.984375 -33.578125 86.265625 -25.234375 82.828125 -18.515625 C 79.398438 -11.804688 74.644531 -6.832031 68.5625 -3.59375 C 62.488281 -0.363281 55.460938 1.25 47.484375 1.25 Z M 47.484375 -13.703125 C 54.867188 -13.703125 60.503906 -16.070312 64.390625 -20.8125 C 68.285156 -25.5625 70.234375 -33.140625 70.234375 -43.546875 C 70.234375 -53.953125 68.285156 -61.535156 64.390625 -66.296875 C 60.503906 -71.066406 54.867188 -73.453125 47.484375 -73.453125 C 40.054688 -73.453125 34.382812 -71.066406 30.46875 -66.296875 C 26.5625 -61.535156 24.609375 -53.953125 24.609375 -43.546875 C 24.609375 -33.140625 26.5625 -25.5625 30.46875 -20.8125 C 34.382812 -16.070312 40.054688 -13.703125 47.484375 -13.703125 Z M 47.484375 -13.703125 "/></g></g></g><g fill="#000000" fill-opacity="1"><g transform="translate(276.897159, 233.121013)"><g><path d="M 28 0 L 11.3125 0 L 11.3125 -87.09375 L 31.03125 -87.09375 L 66 -30.984375 L 67.546875 -31.21875 L 67.546875 -87.09375 L 84.109375 -87.09375 L 84.109375 0 L 66.484375 0 L 29.484375 -59.921875 L 28 -59.6875 Z M 28 0 "/></g></g></g></svg>