<svg xmlns="http://www.w3.org/2000/svg" xmlns:xlink="http://www.w3.org/1999/xlink" width="500" zoomAndPan="magnify" viewBox="0 0 375 374.999991" height="500" preserveAspectRatio="xMidYMid meet" version="1.0"><defs><g/></defs><rect x="-37.5" width="450" fill="#ffffff" y="-37.499999" height="449.999989" fill-opacity="1"/><rect x="-37.5" width="450" fill="#ffffff" y="-37.499999" height="449.999989" fill-opacity="1"/><rect x="-37.5" width="450" fill="#e60707" y="-37.499999" height="449.999989" fill-opacity="1"/><g fill="#ffffff" fill-opacity="1"><g transform="translate(1.325268, 225.582787)"><g><path d="M 33.671875 0.90625 C 24.929688 0.90625 18.441406 -1.171875 14.203125 -5.328125 C 9.972656 -9.484375 7.859375 -15.644531 7.859375 -23.8125 L 7.859375 -63.53125 L 20.171875 -63.53125 L 20.171875 -23.90625 C 20.171875 -19.269531 21.285156 -15.789062 23.515625 -13.46875 C 25.742188 -11.15625 29.128906 -10 33.671875 -10 C 42.679688 -10 47.1875 -14.632812 47.1875 -23.90625 L 47.1875 -63.53125 L 59.5 -63.53125 L 59.5 -23.8125 C 59.5 -15.644531 57.378906 -9.484375 53.140625 -5.328125 C 48.910156 -1.171875 42.421875 0.90625 33.671875 0.90625 Z M 33.671875 0.90625 "/></g></g></g><g fill="#ffffff" fill-opacity="1"><g transform="translate(68.677749, 225.582787)"><g><path d="M 8.25 0 L 8.25 -63.53125 L 33.765625 -63.53125 C 40.335938 -63.53125 45.296875 -62.015625 48.640625 -58.984375 C 51.992188 -55.960938 53.671875 -51.785156 53.671875 -46.453125 C 53.671875 -42.597656 52.691406 -39.4375 50.734375 -36.96875 C 48.773438 -34.507812 45.859375 -32.628906 41.984375 -31.328125 L 41.984375 -30.421875 C 43.984375 -29.546875 45.597656 -28.253906 46.828125 -26.546875 C 48.054688 -24.835938 49.222656 -22.304688 50.328125 -18.953125 L 56.671875 0 L 43.765625 0 L 37.546875 -18.984375 C 36.910156 -20.898438 36.191406 -22.382812 35.390625 -23.4375 C 34.597656 -24.5 33.582031 -25.269531 32.34375 -25.75 C 31.113281 -26.226562 29.515625 -26.46875 27.546875 -26.46875 L 20.8125 -26.46875 L 20.8125 0 Z M 32.25 -36.421875 C 38.332031 -36.421875 41.375 -39.257812 41.375 -44.9375 C 41.375 -50.695312 38.332031 -53.578125 32.25 -53.578125 L 20.8125 -53.578125 L 20.8125 -36.421875 Z M 32.25 -36.421875 "/></g></g></g><g fill="#ffffff" fill-opacity="1"><g transform="translate(128.078292, 225.582787)"><g><path d="M 30.859375 0.90625 C 25.554688 0.90625 20.96875 -0.300781 17.09375 -2.71875 C 13.226562 -5.132812 10.242188 -8.78125 8.140625 -13.65625 C 6.046875 -18.539062 5 -24.578125 5 -31.765625 C 5 -39.003906 6.257812 -45.066406 8.78125 -49.953125 C 11.300781 -54.835938 14.796875 -58.472656 19.265625 -60.859375 C 23.742188 -63.253906 28.941406 -64.453125 34.859375 -64.453125 C 40.941406 -64.453125 46.125 -63.320312 50.40625 -61.0625 C 54.695312 -58.800781 57.710938 -55.4375 59.453125 -50.96875 L 50.28125 -45.40625 L 49.1875 -45.453125 C 47.882812 -48.296875 46.050781 -50.367188 43.6875 -51.671875 C 41.332031 -52.972656 38.390625 -53.625 34.859375 -53.625 C 29.378906 -53.625 25.191406 -51.890625 22.296875 -48.421875 C 19.398438 -44.960938 17.953125 -39.410156 17.953125 -31.765625 C 17.953125 -24.085938 19.304688 -18.507812 22.015625 -15.03125 C 24.722656 -11.5625 28.726562 -9.828125 34.03125 -9.828125 C 38.601562 -9.828125 41.972656 -10.851562 44.140625 -12.90625 C 46.316406 -14.96875 47.40625 -18.039062 47.40625 -22.125 L 47.40625 -24.859375 L 32.375 -24.859375 L 32.375 -35.0625 L 59.890625 -35.0625 L 59.890625 0 L 47.890625 0 L 47.890625 -8.515625 L 46.984375 -8.640625 C 45.671875 -5.597656 43.6875 -3.242188 41.03125 -1.578125 C 38.382812 0.078125 34.992188 0.90625 30.859375 0.90625 Z M 30.859375 0.90625 "/></g></g></g><g fill="#ffffff" fill-opacity="1"><g transform="translate(194.344443, 225.582787)"><g><path d="M 20.8125 -27.90625 L 20.8125 -10.515625 L 51.15625 -10.515625 L 51.15625 0 L 8.25 0 L 8.25 -63.53125 L 50.453125 -63.53125 L 50.453125 -53.015625 L 20.8125 -53.015625 L 20.8125 -38.15625 L 46.71875 -38.15625 L 46.71875 -27.90625 Z M 20.8125 -27.90625 "/></g></g></g><g fill="#ffffff" fill-opacity="1"><g transform="translate(248.965144, 225.582787)"><g><path d="M 20.421875 0 L 8.25 0 L 8.25 -63.53125 L 22.640625 -63.53125 L 48.15625 -22.59375 L 49.28125 -22.765625 L 49.28125 -63.53125 L 61.359375 -63.53125 L 61.359375 0 L 48.5 0 L 21.515625 -43.71875 L 20.421875 -43.546875 Z M 20.421875 0 "/></g></g></g><g fill="#ffffff" fill-opacity="1"><g transform="translate(318.620657, 225.582787)"><g><path d="M 50.9375 -63.53125 L 50.9375 -52.96875 L 32.59375 -52.96875 L 32.59375 0 L 20.078125 0 L 20.078125 -52.96875 L 1.734375 -52.96875 L 1.734375 -63.53125 Z M 50.9375 -63.53125 "/></g></g></g></svg>