<svg xmlns="http://www.w3.org/2000/svg" xmlns:xlink="http://www.w3.org/1999/xlink" width="500" zoomAndPan="magnify" viewBox="0 0 375 374.999991" height="500" preserveAspectRatio="xMidYMid meet" version="1.0"><defs><g/><clipPath id="703eff3afc"><path d="M 187.5 0 C 83.945312 0 0 83.945312 0 187.5 C 0 291.054688 83.945312 375 187.5 375 C 291.054688 375 375 291.054688 375 187.5 C 375 83.945312 291.054688 0 187.5 0 Z M 187.5 0 " clip-rule="nonzero"/></clipPath></defs><rect x="-37.5" width="450" fill="#ffffff" y="-37.499999" height="449.999989" fill-opacity="1"/><rect x="-37.5" width="450" fill="#ffffff" y="-37.499999" height="449.999989" fill-opacity="1"/><g clip-path="url(#703eff3afc)"><rect x="-37.5" width="450" fill="#d60000" y="-37.499999" height="449.999989" fill-opacity="1"/></g><g fill="#ffffff" fill-opacity="1"><g transform="translate(0.421879, 221.249985)"><g><path d="M 34.0625 0.921875 C 25.207031 0.921875 18.640625 -1.175781 14.359375 -5.375 C 10.085938 -9.582031 7.953125 -15.816406 7.953125 -24.078125 L 7.953125 -64.25 L 20.390625 -64.25 L 20.390625 -24.171875 C 20.390625 -19.484375 21.515625 -15.96875 23.765625 -13.625 C 26.023438 -11.28125 29.457031 -10.109375 34.0625 -10.109375 C 43.164062 -10.109375 47.71875 -14.796875 47.71875 -24.171875 L 47.71875 -64.25 L 60.15625 -64.25 L 60.15625 -24.078125 C 60.15625 -15.816406 58.015625 -9.582031 53.734375 -5.375 C 49.460938 -1.175781 42.90625 0.921875 34.0625 0.921875 Z M 34.0625 0.921875 "/></g></g><g transform="translate(68.53711, 221.249985)"><g><path d="M 8.34375 0 L 8.34375 -64.25 L 34.140625 -64.25 C 40.796875 -64.25 45.8125 -62.71875 49.1875 -59.65625 C 52.570312 -56.59375 54.265625 -52.367188 54.265625 -46.984375 C 54.265625 -43.085938 53.273438 -39.890625 51.296875 -37.390625 C 49.328125 -34.898438 46.378906 -33 42.453125 -31.6875 L 42.453125 -30.765625 C 44.472656 -29.878906 46.101562 -28.570312 47.34375 -26.84375 C 48.59375 -25.125 49.773438 -22.5625 50.890625 -19.15625 L 57.3125 0 L 44.25 0 L 37.96875 -19.203125 C 37.320312 -21.140625 36.59375 -22.640625 35.78125 -23.703125 C 34.976562 -24.773438 33.953125 -25.550781 32.703125 -26.03125 C 31.460938 -26.519531 29.847656 -26.765625 27.859375 -26.765625 L 21.046875 -26.765625 L 21.046875 0 Z M 32.609375 -36.828125 C 38.765625 -36.828125 41.84375 -39.695312 41.84375 -45.4375 C 41.84375 -51.269531 38.765625 -54.1875 32.609375 -54.1875 L 21.046875 -54.1875 L 21.046875 -36.828125 Z M 32.609375 -36.828125 "/></g></g><g transform="translate(128.610348, 221.249985)"><g><path d="M 31.203125 0.921875 C 25.835938 0.921875 21.195312 -0.300781 17.28125 -2.75 C 13.375 -5.195312 10.359375 -8.882812 8.234375 -13.8125 C 6.109375 -18.75 5.046875 -24.851562 5.046875 -32.125 C 5.046875 -39.445312 6.320312 -45.578125 8.875 -50.515625 C 11.425781 -55.453125 14.960938 -59.128906 19.484375 -61.546875 C 24.015625 -63.960938 29.269531 -65.171875 35.25 -65.171875 C 41.394531 -65.171875 46.632812 -64.023438 50.96875 -61.734375 C 55.3125 -59.453125 58.363281 -56.054688 60.125 -51.546875 L 50.84375 -45.921875 L 49.75 -45.96875 C 48.425781 -48.84375 46.570312 -50.9375 44.1875 -52.25 C 41.800781 -53.570312 38.820312 -54.234375 35.25 -54.234375 C 29.707031 -54.234375 25.472656 -52.476562 22.546875 -48.96875 C 19.617188 -45.46875 18.15625 -39.851562 18.15625 -32.125 C 18.15625 -24.363281 19.523438 -18.722656 22.265625 -15.203125 C 25.003906 -11.691406 29.050781 -9.9375 34.40625 -9.9375 C 39.039062 -9.9375 42.453125 -10.972656 44.640625 -13.046875 C 46.835938 -15.128906 47.9375 -18.238281 47.9375 -22.375 L 47.9375 -25.140625 L 32.734375 -25.140625 L 32.734375 -35.46875 L 60.5625 -35.46875 L 60.5625 0 L 48.421875 0 L 48.421875 -8.609375 L 47.5 -8.75 C 46.1875 -5.664062 44.1875 -3.28125 41.5 -1.59375 C 38.820312 0.0820312 35.390625 0.921875 31.203125 0.921875 Z M 31.203125 0.921875 "/></g></g><g transform="translate(195.626945, 221.249985)"><g><path d="M 21.046875 -28.21875 L 21.046875 -10.640625 L 51.71875 -10.640625 L 51.71875 0 L 8.34375 0 L 8.34375 -64.25 L 51.015625 -64.25 L 51.015625 -53.609375 L 21.046875 -53.609375 L 21.046875 -38.578125 L 47.234375 -38.578125 L 47.234375 -28.21875 Z M 21.046875 -28.21875 "/></g></g><g transform="translate(250.8662, 221.249985)"><g><path d="M 20.65625 0 L 8.34375 0 L 8.34375 -64.25 L 22.890625 -64.25 L 48.6875 -22.859375 L 49.828125 -23.03125 L 49.828125 -64.25 L 62.046875 -64.25 L 62.046875 0 L 49.046875 0 L 21.75 -44.203125 L 20.65625 -44.03125 Z M 20.65625 0 "/></g></g><g transform="translate(321.310531, 221.249985)"><g><path d="M 51.5 -64.25 L 51.5 -53.5625 L 32.953125 -53.5625 L 32.953125 0 L 20.296875 0 L 20.296875 -53.5625 L 1.765625 -53.5625 L 1.765625 -64.25 Z M 51.5 -64.25 "/></g></g></g></svg>